<?xml version="1.0" encoding="UTF-8"?>
<svg xmlns="http://www.w3.org/2000/svg" width="40px" height="40px"
     viewBox="0 0 40 40" version="1.1">
    <defs>
        <linearGradient id="linear0" gradientUnits="userSpaceOnUse" x1="0.829768" y1="-0.00151904" x2="0.352531"
                        y2="0.677793" gradientTransform="matrix(27.5,0,0,28.71875,6.25,6.28125)">
            <stop offset="0" style="stop-color:rgb(63.137255%,54.117647%,96.862745%);stop-opacity:1;"/>
            <stop offset="1" style="stop-color:rgb(45.490196%,40.392157%,94.901961%);stop-opacity:1;"/>
        </linearGradient>
    </defs>
    <g id="surface1">
        <path style=" stroke:none;fill-rule:evenodd;fill:url(#linear0);"
              d="M 18.644531 23.03125 C 23.054688 13.972656 28.765625 11.425781 28.898438 11.367188 C 20.0625 20.820312 20.664062 22.832031 20.679688 22.875 C 22.800781 21.511719 26.3125 21.101562 29.515625 18.945312 L 29.835938 18.726562 C 33.078125 16.410156 33.730469 6.566406 33.75 6.28125 C 20.363281 7.0625 18.644531 23.03125 18.644531 23.03125 M 6.25 14.300781 C 6.25 14.300781 6.25 14.304688 6.25 14.3125 L 6.25 14.460938 C 6.261719 15.476562 6.582031 20.988281 12.113281 22.3125 L 12.359375 22.367188 C 12.359375 22.367188 16.09375 22.726562 16.652344 23.492188 L 16.695312 23.5625 C 16.695312 23.5625 14.90625 14.496094 7.273438 14.277344 L 6.992188 14.273438 C 6.75 14.273438 6.503906 14.28125 6.25 14.300781 M 17.015625 24.707031 C 14.992188 25.265625 13.144531 26.511719 11.851562 28.359375 L 11.695312 28.59375 C 10.460938 30.480469 9.996094 32.648438 10.226562 34.730469 L 10.261719 35 C 12.296875 34.441406 14.148438 33.195312 15.441406 31.34375 L 15.601562 31.109375 C 16.835938 29.222656 17.292969 27.050781 17.0625 24.972656 L 17.027344 24.703125 C 17.027344 24.703125 17.023438 24.707031 17.015625 24.707031 M 28.835938 31.832031 C 28.835938 31.832031 28.710938 26.109375 22.949219 25.421875 C 22.949219 25.421875 19.375 25.378906 19 24.714844 C 19 24.714844 21.242188 32.949219 28.835938 31.832031 "/>
    </g>
</svg>
