<?xml version="1.0" encoding="UTF-8"?>
<svg width="40px" height="40px" viewBox="0 0 108 108" version="1.1" xmlns="http://www.w3.org/2000/svg" xmlns:xlink="http://www.w3.org/1999/xlink">
    <title>花瓣-Android</title>
    <defs>
        <linearGradient x1="82.9767526%" y1="-0.151903669%" x2="35.253114%" y2="67.779263%" id="linearGradient-1">
            <stop stop-color="#A18AF7" offset="0%"></stop>
            <stop stop-color="#7467F2" offset="100%"></stop>
        </linearGradient>
    </defs>
    <g id="花瓣-Android" stroke="none" stroke-width="1" fill="none" fill-rule="evenodd">
        <path d="M50.337,62.182 C62.248,37.731 77.67,30.847 78.022,30.691 L78.022,30.691 C54.171,56.217 55.796,61.65 55.832,61.759 L55.832,61.759 C61.558,58.077 71.046,56.969 79.696,51.156 L79.696,51.156 L80.557,50.558 C89.308,44.309 91.076,17.729 91.125,16.955 L91.125,16.955 C54.986,19.067 50.337,62.182 50.337,62.182 M16.878,38.607 C16.878,38.607 16.876,38.62 16.876,38.645 L16.876,38.645 L16.874,39.045 C16.906,41.789 17.775,56.664 32.701,60.239 L32.701,60.239 L33.368,60.389 C33.368,60.389 43.451,61.359 44.964,63.424 L44.964,63.424 L45.076,63.616 C45.076,63.616 40.246,39.139 19.643,38.547 L19.643,38.547 L18.881,38.536 C18.229,38.536 17.562,38.56 16.878,38.607 M45.945,66.709 C40.474,68.215 35.486,71.579 32.003,76.571 L32.003,76.571 L31.575,77.202 C28.243,82.301 26.991,88.155 27.611,93.771 L27.611,93.771 L27.703,94.5 C33.197,92.987 38.2,89.63 41.695,84.629 L41.695,84.629 L42.124,83.994 C45.452,78.899 46.696,73.041 46.071,67.429 L46.071,67.429 L45.978,66.698 C45.969,66.698 45.962,66.704 45.945,66.709 M77.853,85.951 C77.853,85.951 77.522,70.496 61.963,68.641 L61.963,68.641 C61.963,68.641 52.314,68.525 51.299,66.734 L51.299,66.734 C51.299,66.734 57.358,88.965 77.853,85.951" id="Fill-14" fill="url(#linearGradient-1)"></path>
    </g>
</svg>